# AST/ASF file generated using VICON BodyLanguage
# -----------------------------------------------
:version 1.10
:name VICON
:units
  mass 1.0
  length 0.45
  angle deg
:documentation
   .ast/.asf automatically generated from VICON data using
   VICON BodyBuilder and BodyLanguage model FoxedUp or BRILLIANT.MOD
:root
   order TX TY TZ RX RY RZ
   axis XYZ
   position 0 0 0  
   orientation 0 0 0 
:bonedata
  begin
     id 1 
     name lhipjoint
     direction 0.528046 -0.759594 0.379717 
     length 2.39752 
     axis 0 0 0  XYZ
  end
  begin
     id 2 
     name lfemur
     direction 0.34202 -0.939693 0  
     length 7.31175  
     axis 0 0 20  XYZ
    dof rx ry rz
    limits (-160.0 20.0)
           (-70.0 70.0)
           (-60.0 70.0)
  end
  begin
     id 3 
     name ltibia
     direction 0.34202 -0.939693 0   
     length 7.52482   
     axis 0 0 20   XYZ
    dof rx
    limits (-10.0 170.0)
  end
  begin
     id 4 
     name lfoot
     direction 0.0675379 -0.185559 0.980309   
     length 2.00961   
     axis -90 7.62852e-016 20   XYZ
    dof rx rz
    limits (-45.0 90.0)
           (-70.0 20.0)
  end
  begin
     id 5 
     name ltoes
     direction 1.5352e-011 -4.22286e-011 1   
     length 1.01383   
     axis -90 7.62852e-016 20   XYZ
    dof rx
    limits (-90.0 20.0)
  end
  begin
     id 6 
     name rhipjoint
     direction -0.510274 -0.769251 0.384544   
     length 2.36742  
     axis 0 0 0  XYZ 
  end
  begin
     id 7 
     name rfemur
     direction -0.34202 -0.939693 0   
     length 7.45325   
     axis 0 0 -20   XYZ
    dof rx ry rz
    limits (-160.0 20.0)
           (-70.0 70.0)
           (-70.0 60.0)
  end
  begin
     id 8 
     name rtibia
     direction -0.34202 -0.939693 0   
     length 7.49587   
     axis 0 0 -20   XYZ
    dof rx
    limits (-10.0 170.0)
 end
 begin
     id 9 
     name rfoot
     direction -0.106475 -0.292536 0.950308   
     length 2.20898  
     axis -90 -7.62852e-016 -20   XYZ
    dof rx rz
    limits (-45.0 90.0)
           (-20.0 70.0)
  end
  begin
     id 10 
     name rtoes
     direction -1.53597e-011 -4.22023e-011 1   
     length 1.10065   
     axis -90 -7.62852e-016 -20   XYZ
    dof rx
    limits (-90.0 20.0)
  end
  begin
     id 11 
     name lowerback
     direction 0.0260024 0.998026 -0.0571652   
     length 2.11214   
     axis 0 0 0   XYZ
    dof rx ry rz
    limits (-20.0 45.0)
           (-30.0 30.0)
           (-30.0 30.0)
  end
  begin
     id 12 
     name upperback
     direction 0.0216202 0.999542 -0.0211766   
     length 2.11689   
     axis 0 0 0   XYZ
    dof rx ry rz
    limits (-20.0 45.0)
           (-30.0 30.0)
           (-30.0 30.0)
  end
  begin
     id 13 
     name thorax
     direction 0.00883312 0.999944 0.00589057   
     length 2.11821   
     axis 0 0 0   XYZ
    dof rx ry rz
    limits (-20.0 45.0)
           (-30.0 30.0)
           (-30.0 30.0)
  end
  begin
     id 14 
     name lowerneck
     direction -0.059386 0.994433 0.0870401   
     length 1.81176   
     axis 0 0 0   XYZ
    dof rx ry rz
    limits (-20.0 45.0)
           (-30.0 30.0)
           (-30.0 30.0)
  end
  begin
     id 15 
     name upperneck
     direction 0.0506457 0.97328 -0.223967   
     length 1.82382   
     axis 0 0 0   XYZ
    dof rx ry rz
    limits (-20.0 45.0)
           (-30.0 30.0)
           (-30.0 30.0)
  end
  begin
     id 16
     name head
     direction 0.0205902 0.996147 -0.0852487  
     length 1.84805  
     axis 0 0 0   XYZ
    dof rx ry rz
    limits (-20.0 45.0)
           (-30.0 30.0)
           (-30.0 30.0)
  end
  begin
     id 17 
     name lclavicle
     direction 0.949493 0.303881 -0.0782325  
     length 3.60584  
     axis 0 0 0   XYZ
    dof ry rz
    limits (-20.0 10.0)
           (0.0 20.0)
  end
  begin
     id 18 
     name lhumerus
     direction 1 -4.48965e-011 1.48782e-027   
     length 4.95681   
     axis 180 -30 -90   XYZ
    dof rx ry rz
    limits (-60.0 90.0)
           (-90.0 90.0)
           (-90.0 90.0)
  end
  begin
     id 19
     name lradius
     direction 1 -4.48952e-011 2.06528e-027   
     length 3.40915   
     axis 180 -30 -90   XYZ
    dof rx
    limits (-10.0 170.0)
  end
  begin
     id 20
     name lwrist
     direction 1 -4.48964e-011 1.28021e-027   
     length 1.70457   
     axis -1.61767e-015 90 90   XYZ
    dof ry
    limits (-180.0 0.0)
 end
  begin
     id 21 
     name lhand
     direction 1 -4.49094e-011 2.54887e-027   
     length 0.616403   
     axis -1.63363e-015 90 90   XYZ
    dof rx rz
    limits (-90.0 90.0)
           (-45.0 45.0)
  end
  begin
     id 22 
     name lfingers
     direction 1 -4.49002e-011 5.11407e-027   
     length 0.49696   
     axis -3.26723e-015 90 90   XYZ
    dof rx
    limits (0.0 90.0)
  end
  begin
     id 23
     name lthumb
     direction 0.707107 -6.34998e-011 0.707107   
     length 0.713539   
     axis -90 45 -2.25915e-014   XYZ
    dof rx rz
    limits (-45.0 45.0)
           (-45.0 45.0)
  end
  begin
     id 24 
     name rclavicle
     direction -0.937751 0.334612 -0.0930482   
     length 3.46287  
     axis 0 0 0   XYZ 
    dof ry rz
    limits (-10.0 20.0)
           (-20.0 0.0)
  end
  begin
     id 25 
     name rhumerus
     direction -1 -4.48962e-011 3.59972e-027  
     length 5.352   
     axis 180 30 90   XYZ
    dof rx ry rz
    limits (-90.0 60.0)
           (-90.0 90.0)
           (-90.0 90.0)
  end
  begin
     id 26 
     name rradius
     direction -1 -4.48987e-011 -3.76925e-027   
     length 3.43721   
     axis 180 30 90   XYZ
    dof rx
    limits (-10.0 170.0)
  end
  begin
     id 27 
     name rwrist
     direction -1 -4.48943e-011 1.28112e-027   
     length 1.7186   
     axis -1.61767e-015 -90 -90   XYZ
    dof ry
    limits (-180.0 0.0)
  end
  begin
     id 28
     name rhand
     direction -1 -4.49027e-011 2.55483e-027   
     length 0.72009   
     axis -1.63363e-015 -90 -90   XYZ
    dof rx rz
    limits (-90.0 90.0)
           (-45.0 45.0)
  end
  begin
     id 29
     name rfingers
     direction -1 -4.48827e-011 5.14506e-027   
     length 0.580555   
     axis -3.26723e-015 -90 -90   XYZ
    dof rx
    limits (0.0 90.0)
  end
  begin
     id 30
     name rthumb
     direction -0.707107 -6.34936e-011 0.707107   
     length 0.833564   
     axis -90 -45 2.25915e-014   XYZ
    dof rx rz
    limits (-45.0 45.0)
           (-45.0 45.0)
  end
:hierarchy
  begin
    root lhipjoint rhipjoint lowerback
    lhipjoint lfemur
    lfemur ltibia
    ltibia lfoot
    lfoot ltoes
    rhipjoint rfemur
    rfemur rtibia
    rtibia rfoot
    rfoot rtoes
    lowerback upperback
    upperback thorax
    thorax lowerneck lclavicle rclavicle
    lowerneck upperneck
    upperneck head
    lclavicle lhumerus
    lhumerus lradius
    lradius lwrist
    lwrist lhand lthumb
    lhand lfingers
    rclavicle rhumerus
    rhumerus rradius
    rradius rwrist
    rwrist rhand rthumb
    rhand rfingers
  end

#!OML:ASF H:\Terrain\Patient Classification 1\Terrain2\Thursday\justin.ASF
:FULLY-SPECIFIED
:DEGREES
1
root 20.445 20.6232 -10.8404 37.0309 -85.1808 -33.6739
lowerback 1.14117 0.264912 2.41612
upperback -1.7867 0.423263 1.67231
thorax -2.46864 0.172483 0.349181
lowerneck -17.6284 -0.271915 -7.74256
upperneck 23.1599 0.550018 4.31474
head 10.2796 0.00175823 2.89754
rclavicle 7.42336e-016 -1.59028e-014
rhumerus -33.0783 -9.29091 -83.5392
rradius 24.6541
rwrist -5.27808
rhand -21.104 11.7991
rfingers 7.12502
rthumb 5.27396 -18.1152
lclavicle 7.42336e-016 -1.59028e-014
lhumerus -31.7488 -1.55557 91.6372
lradius 24.1474
lwrist 0.0457626
lhand -17.7362 21.1398
lfingers 7.12502
lthumb 8.52494 50.9477
rfemur -8.41114 -1.22249 26.6981
rtibia 31.0049
rfoot -21.5585 -2.68035
rtoes 20.4751
lfemur -9.36107 -1.9662 -18.0003
ltibia 30.2133
lfoot -17.9045 -11.546
ltoes 23.9839
2
root 20.4425 20.6178 -10.8393 37.5669 -85.198 -34.2613
lowerback 1.12284 0.294742 2.47457
upperback -1.78471 0.463318 1.65493
thorax -2.45528 0.191335 0.297431
lowerneck -17.4445 -0.296578 -7.75903
upperneck 23.5795 0.47647 4.33272
head 10.4015 -0.0485034 2.90324
rclavicle 5.59082e-015 9.34288e-015
rhumerus -33.1248 -9.30989 -83.5449
rradius 24.674
rwrist -5.32567
rhand -20.9147 11.7536
rfingers 7.12502
rthumb 5.45667 -18.1561
lclavicle 5.59082e-015 9.34288e-015
lhumerus -31.7753 -1.56998 91.605
lradius 24.1314
lwrist 0.0358754
lhand -17.7596 21.1835
lfingers 7.12502
lthumb 8.50234 50.9924
rfemur -8.36578 -1.26824 26.7212
rtibia 31.0477
rfoot -21.4868 -2.88047
rtoes 19.3774
lfemur -9.3124 -1.78848 -17.9643
ltibia 30.2345
lfoot -18.0889 -11.7376
ltoes 23.3495
3
root 20.442 20.6078 -10.8392 38.9921 -85.1825 -35.7567
lowerback 1.14897 0.353549 2.64876
upperback -1.77524 0.545937 1.62405
thorax -2.45751 0.229034 0.165524
lowerneck -17.1835 -0.380666 -7.64299
upperneck 23.8817 0.301086 4.25651
head 10.4744 -0.142161 2.8355
rclavicle -5.51162e-015 -6.16232e-015
rhumerus -33.1487 -9.54362 -83.524
rradius 24.6316
rwrist -5.28403
rhand -20.9893 11.7429
rfingers 7.12502
rthumb 5.38467 -18.1687
lclavicle -5.51162e-015 -6.16232e-015
lhumerus -31.8039 -1.51802 91.5325
lradius 24.1164
lwrist -0.0949901
lhand -17.7532 21.0881
lfingers 7.12502
lthumb 8.5085 50.8967
rfemur -8.34839 -1.19925 26.8423
rtibia 31.1859
rfoot -21.4862 -2.82772
rtoes 19.9293
lfemur -9.24439 -1.56037 -17.8405
ltibia 30.1655
lfoot -17.8188 -11.8224
ltoes 24.4642
4
root 20.4441 20.5996 -10.8415 39.09 -85.2008 -35.8615
lowerback 1.14412 0.390949 2.66345
upperback -1.77816 0.595786 1.59888
thorax -2.45657 0.253487 0.129885
lowerneck -17.2196 -0.476198 -7.6647
upperneck 24.4851 0.142258 4.26939
head 10.7138 -0.235883 2.83424
rclavicle 2.13329e-014 3.18055e-015
rhumerus -33.1272 -9.76894 -83.4707
rradius 24.5712
rwrist -5.24971
rhand -21.0921 11.8022
rfingers 7.12502
rthumb 5.28546 -18.1119
lclavicle 2.13329e-014 3.18055e-015
lhumerus -31.786 -1.63255 91.5325
lradius 24.1107
lwrist 0.0178244
lhand -17.7259 21.0918
lfingers 7.12502
lthumb 8.53484 50.8993
rfemur -8.35602 -1.12909 26.8482
rtibia 31.2359
rfoot -21.5216 -2.68282
rtoes 20.5417
lfemur -9.31492 -1.32481 -17.8453
ltibia 30.1604
lfoot -17.0748 -12.0695
ltoes 27.795
5
root 20.4447 20.6021 -10.8422 38.3238 -85.2186 -35.128
lowerback 1.16506 0.393897 2.61052
upperback -1.78701 0.599628 1.58933
thorax -2.47776 0.256162 0.149392
lowerneck -17.1979 -0.476455 -7.64987
upperneck 25.1037 0.13034 4.16971
head 10.9405 -0.274901 2.80551
rclavicle 6.14214e-016 -3.97569e-016
rhumerus -33.1218 -9.84647 -83.4255
rradius 24.5335
rwrist -5.20185
rhand -21.0349 12.0237
rfingers 7.12502
rthumb 5.34061 -17.889
lclavicle 6.14214e-016 -3.97569e-016
lhumerus -31.8186 -1.70067 91.5595
lradius 24.1256
lwrist 0.12025
lhand -17.9564 21.155
lfingers 7.12502
lthumb 8.31246 50.9715
rfemur -8.30437 -1.02699 26.776
rtibia 31.2457
rfoot -21.6798 -2.63026
rtoes 20.8339
lfemur -9.29817 -1.16843 -17.8849
ltibia 30.1888
lfoot -16.887 -12.3567
ltoes 28.4486
6
root 20.4441 20.6098 -10.8435 38.0924 -85.2307 -34.9135
lowerback 1.1845 0.457738 2.64382
upperback -1.81443 0.685967 1.48762
thorax -2.51391 0.297526 0.023309
lowerneck -17.0704 -0.510805 -7.6205
upperneck 25.7102 -0.0223243 4.3397
head 11.1516 -0.344311 2.85224
rclavicle 1.76126e-014 1.25234e-014
rhumerus -33.1665 -10.3463 -83.3893
rradius 24.4795
rwrist -4.94333
rhand -20.914 12.0542
rfingers 7.12502
rthumb 5.45739 -17.8556
lclavicle 1.76126e-014 1.25234e-014
lhumerus -31.866 -1.66495 91.4476
lradius 24.1287
lwrist -0.156403
lhand -18.1582 21.2077
lfingers 7.12502
lthumb 8.11761 51.0318
rfemur -8.29423 -1.15104 26.7335
rtibia 31.2418
rfoot -21.724 -2.46592
rtoes 21.0905
lfemur -9.2218 -1.13337 -17.8415
ltibia 30.2339
lfoot -17.5996 -12.361
ltoes 25.1949
7
root 20.444 20.6119 -10.8473 38.7116 -85.25 -35.5042
lowerback 1.14933 0.503965 2.68589
upperback -1.83917 0.74687 1.41969
thorax -2.51704 0.326413 -0.0717041
lowerneck -17.0738 -0.554696 -7.78416
upperneck 26.4578 -0.21098 4.79135
head 11.4467 -0.416708 3.03668
rclavicle -8.81505e-015 2.28602e-014
rhumerus -33.1693 -10.7538 -83.3838
rradius 24.4338
rwrist -4.79889
rhand -20.7999 12.1359
rfingers 7.12502
rthumb 5.56759 -17.7709
lclavicle -8.81505e-015 2.28602e-014
lhumerus -31.8338 -1.4268 91.2481
lradius 24.0988
lwrist -0.563127
lhand -18.0665 21.2332
lfingers 7.12502
lthumb 8.20612 51.0539
rfemur -8.36218 -1.29334 26.7672
rtibia 31.2709
rfoot -21.7028 -2.34546
rtoes 21.26
lfemur -9.22575 -1.12761 -17.7689
ltibia 30.2624
lfoot -18.1093 -12.195
ltoes 23.069
8
root 20.4451 20.6061 -10.85 38.1513 -85.3015 -34.9536
lowerback 1.12735 0.45186 2.58935
upperback -1.82553 0.674316 1.432
thorax -2.4932 0.292606 -0.00252061
lowerneck -17.0144 -0.512222 -7.99247
upperneck 27.0452 -0.215422 5.07074
head 11.6591 -0.428224 3.18928
rclavicle -2.24836e-015 -1.27222e-014
rhumerus -33.091 -10.5591 -83.4439
rradius 24.4353
rwrist -4.92101
rhand -20.8389 12.4765
rfingers 7.12502
rthumb 5.52985 -17.4313
lclavicle -2.24836e-015 -1.27222e-014
lhumerus -31.7814 -1.28132 91.1902
lradius 24.136
lwrist -0.486921
lhand -17.9563 21.2154
lfingers 7.12502
lthumb 8.31252 51.0319
rfemur -8.42139 -1.24663 26.7147
rtibia 31.4037
rfoot -21.7504 -2.43759
rtoes 21.2471
lfemur -9.20553 -1.07117 -17.8208
ltibia 30.2129
lfoot -17.8569 -12.3845
ltoes 24.3705
9
root 20.4482 20.5955 -10.8513 35.5674 -85.3735 -32.3661
lowerback 1.11067 0.415515 2.36357
upperback -1.80358 0.619785 1.38634
thorax -2.46374 0.270231 0.0787831
lowerneck -17.1191 -0.537451 -8.04558
upperneck 27.7166 -0.285922 5.12229
head 11.947 -0.483403 3.22518
rclavicle 2.3959e-015 -8.54774e-015
rhumerus -33.0199 -10.4303 -83.4916
rradius 24.475
rwrist -5.0332
rhand -20.848 12.5134
rfingers 7.12502
rthumb 5.52108 -17.3947
lclavicle 2.3959e-015 -8.54774e-015
lhumerus -31.7405 -1.41903 91.2447
lradius 24.2438
lwrist -0.234265
lhand -18.0776 21.3274
lfingers 7.12502
lthumb 8.19544 51.1485
rfemur -8.56452 -1.31956 26.4909
rtibia 31.6694
rfoot -21.8622 -2.47899
rtoes 21.1314
lfemur -9.20751 -0.786347 -18.0255
ltibia 30.0495
lfoot -17.2277 -12.9894
ltoes 26.8074
10
root 20.4506 20.5884 -10.8535 32.4285 -85.5021 -29.1893
lowerback 1.08371 0.414474 2.02818
upperback -1.80197 0.609958 1.32125
thorax -2.44934 0.271811 0.200102
lowerneck -17.2281 -0.585441 -8.14181
upperneck 28.4359 -0.396867 5.22562
head 12.2626 -0.557053 3.28416
rclavicle -1.21251e-015 8.34896e-015
rhumerus -32.9689 -10.3672 -83.5459
rradius 24.5342
rwrist -5.20546
rhand -20.8567 12.3363
rfingers 7.12502
rthumb 5.51272 -17.572
lclavicle -1.21251e-015 8.34896e-015
lhumerus -31.7102 -1.38717 91.2408
lradius 24.2672
lwrist -0.337995
lhand -18.3986 21.3203
lfingers 7.12502
lthumb 7.88561 51.1532
rfemur -8.74096 -1.32762 26.1829
rtibia 31.9871
rfoot -22.1103 -2.39871
rtoes 21.6837
lfemur -9.25197 -0.267236 -18.325
ltibia 29.8427
lfoot -16.9025 -13.4165
ltoes 27.5011
11
root 20.45 20.5844 -10.8558 29.9887 -85.6907 -26.7137
lowerback 1.0488 0.458036 1.73658
upperback -1.80944 0.660302 1.24073
thorax -2.43878 0.302262 0.279311
lowerneck -17.0584 -0.611538 -8.13613
upperneck 28.9423 -0.504744 5.25129
head 12.4389 -0.625682 3.28769
rclavicle -2.22856e-015 -5.96354e-016
rhumerus -32.9458 -10.3315 -83.5999
rradius 24.6026
rwrist -5.42261
rhand -20.9863 12.4487
rfingers 7.12502
rthumb 5.38761 -17.4628
lclavicle -2.22856e-015 -5.96354e-016
lhumerus -31.7064 -1.47132 91.2346
lradius 24.3056
lwrist -0.269182
lhand -18.6448 21.2309
lfingers 7.12502
lthumb 7.64801 51.0726
rfemur -8.90105 -1.34059 25.9023
rtibia 32.288
rfoot -22.3086 -2.3982
rtoes 21.383
lfemur -9.22092 -0.00315431 -18.6064
ltibia 29.6539
lfoot -16.9894 -13.427
ltoes 27.1529
12
root 20.449 20.5782 -10.8582 30.5525 -85.7336 -27.2778
lowerback 1.00972 0.492571 1.74817
upperback -1.78916 0.705121 1.23194
thorax -2.39534 0.324741 0.262818
lowerneck -17.0345 -0.632204 -7.97874
upperneck 29.5723 -0.573248 5.04831
head 12.6953 -0.692481 3.18676
rclavicle 1.55557e-014 1.37161e-014
rhumerus -32.8984 -10.3679 -83.6293
rradius 24.6434
rwrist -5.47242
rhand -21.0492 12.5847
rfingers 7.12502
rthumb 5.32684 -17.3283
lclavicle 1.55557e-014 1.37161e-014
lhumerus -31.689 -1.8822 91.3274
lradius 24.4841
lwrist 0.35305
lhand -18.7632 21.7301
lfingers 7.12502
lthumb 7.5337 51.5759
rfemur -9.01507 -1.34339 25.9491
rtibia 32.5084
rfoot -22.3884 -2.53863
rtoes 20.5731
lfemur -9.158 0.173218 -18.5411
ltibia 29.5333
lfoot -16.737 -13.7864
ltoes 28.702
13
root 20.4492 20.5704 -10.861 31.5468 -85.7333 -28.3299
lowerback 1.0276 0.483476 1.78582
upperback -1.74668 0.693961 1.2492
thorax -2.3616 0.31909 0.259787
lowerneck -17.0367 -0.626456 -7.9651
upperneck 30.1827 -0.614129 5.03137
head 12.9502 -0.737964 3.18666
rclavicle -2.51199e-015 -1.33186e-014
rhumerus -32.846 -10.1828 -83.7608
rradius 24.7711
rwrist -5.61068
rhand -20.738 12.4994
rfingers 7.12502
rthumb 5.62731 -17.4059
lclavicle -2.51199e-015 -1.33186e-014
lhumerus -31.6546 -2.2696 91.3692
lradius 24.647
lwrist 1.02382
lhand -18.6611 22.2153
lfingers 7.12502
lthumb 7.63227 52.0576
rfemur -9.01403 -1.09662 26.0579
rtibia 32.6562
rfoot -22.4284 -2.60557
rtoes 21.1479
lfemur -9.07295 0.367682 -18.4002
ltibia 29.4794
lfoot -16.3564 -14.381
ltoes 30.5805
14
root 20.4489 20.5716 -10.8643 29.8051 -85.8765 -26.6206
lowerback 1.03158 0.502899 1.55565
upperback -1.70092 0.714599 1.20911
thorax -2.31867 0.334134 0.346973
lowerneck -16.9243 -0.667715 -8.06624
upperneck 30.6333 -0.740826 5.16778
head 13.1248 -0.809894 3.24839
rclavicle 2.00804e-015 2.5842e-015
rhumerus -32.7918 -9.87047 -83.8792
rradius 24.973
rwrist -5.95783
rhand -20.358 12.4632
rfingers 7.12502
rthumb 5.99415 -17.432
lclavicle 2.00804e-015 2.5842e-015
lhumerus -31.5723 -2.31247 91.3237
lradius 24.6593
lwrist 1.05428
lhand -18.4336 22.1867
lfingers 7.12502
lthumb 7.85182 52.0209
rfemur -9.02292 -0.933349 25.8694
rtibia 32.799
rfoot -22.4305 -2.56533
rtoes 21.792
lfemur -8.97163 0.389528 -18.5561
ltibia 29.4429
lfoot -16.6259 -14.3922
ltoes 29.3921
15
root 20.4463 20.5762 -10.8687 26.4425 -86.075 -23.3038
lowerback 1.02819 0.53403 1.18526
upperback -1.64002 0.747836 1.16139
thorax -2.25781 0.357949 0.504654
lowerneck -16.9112 -0.707453 -7.98605
upperneck 31.1767 -0.812015 4.9789
head 13.3577 -0.881947 3.16164
rclavicle -1.64028e-014 5.1684e-015
rhumerus -32.7069 -9.74748 -83.8864
rradius 25.0609
rwrist -6.12871
rhand -20.3054 12.6271
rfingers 7.12502
rthumb 6.04499 -17.2667
lclavicle -1.64028e-014 5.1684e-015
lhumerus -31.4473 -2.13194 91.277
lradius 24.5408
lwrist 0.72209
lhand -18.499 21.9269
lfingers 7.12502
lthumb 7.78876 51.7635
rfemur -9.04786 -1.01254 25.5331
rtibia 32.9827
rfoot -22.506 -2.46716
rtoes 22.4578
lfemur -8.83597 0.584281 -18.8445
ltibia 29.3803
lfoot -16.8923 -14.3986
ltoes 27.9475
